PathFileType	4	(X/Y/Z)	/Users/niels/Desktop/University/Third Semester/Perception and Action/Exam/Gymnastics Motion Tracking/Code for Gym Tracking/Scripts/Analyzed Data/Start Salto/st_salto_good_id13_1_Sports2D/st_salto_good_id13_1_Sports2D_px_person00.trc
DataRate	CameraRate	NumFrames	NumMarkers	Units	OrigDataRate	OrigDataStartFrame	OrigNumFrames
29.82456140350877	29.82456140350877	7	22	m	29.82456140350877	64	171
Frame#	Time	Hip			RHip			RKnee			RAnkle			RBigToe			RSmallToe			RHeel			LHip			LKnee			LAnkle			LBigToe			LSmallToe			LHeel			Neck			Head			Nose			RShoulder			RElbow			RWrist			LShoulder			LElbow			LWrist		
		X1	Y1	Z1	X2	Y2	Z2	X3	Y3	Z3	X4	Y4	Z4	X5	Y5	Z5	X6	Y6	Z6	X7	Y7	Z7	X8	Y8	Z8	X9	Y9	Z9	X10	Y10	Z10	X11	Y11	Z11	X12	Y12	Z12	X13	Y13	Z13	X14	Y14	Z14	X15	Y15	Z15	X16	Y16	Z16	X17	Y17	Z17	X18	Y18	Z18	X19	Y19	Z19	X20	Y20	Z20	X21	Y21	Z21	X22	Y22	Z22
64	2.1458823529411766	0.9748816481931062	-0.26476041921628185	0.0	0.9746538501561992	-0.2664091075968722	0.0	0.9285233305131345	-0.3832941268246456	0.0	0.8397967941633901	-0.30777856868917824	0.0	0.7848299214600201	-0.3360285911138942	0.0	0.7889630023905023	-0.3188368320906548	0.0	0.8292937117966772	-0.2915474803209314	0.0	0.9785679547173588	-0.2721448990393963	0.0	0.9310434046825197	-0.39034558200006847	0.0	0.8418323329674674	-0.3147077739088315	0.0	0.7808208032315659	-0.33196300399001183	0.0	0.7796595569203745	-0.3332515058651521	0.0	0.8308125878156307	-0.29066583462937756	0.0	1.1067030053151277	-0.3959758185678888	0.0	1.1464969523576314	-0.47886465550137786	0.0	1.100238173452778	-0.4506893827338091	0.0	1.1062949518493852	-0.3649833620907915	0.0	1.0113791329598991	-0.35016819542461586	0.0	0.9412026505505705	-0.4023115724059956	0.0	1.1071756284776786	-0.38741643215703886	0.0	1.0399116326891218	-0.39053128180672936	0.0	0.9860618585148504	-0.4212200205466888	0.0
65	2.1794117647058826	0.9952618335188423	-0.26034151846662795	0.0	0.9947694069246099	-0.2614182189789751	0.0	0.9427784946361386	-0.37427930316565805	0.0	0.8605003227075448	-0.2919827360424969	0.0	0.8037954477826844	-0.3188263551846468	0.0	0.8092527444196386	-0.30140804435516416	0.0	0.8510320644220059	-0.2751513200209111	0.0	0.998018718087749	-0.2681820192794948	0.0	0.9449861695590551	-0.38408804918786776	0.0	0.8611283214644592	-0.2996079997927534	0.0	0.7983724544449495	-0.31427139201384696	0.0	0.7971890684216522	-0.3161767731603429	0.0	0.8506588164894453	-0.27453868783848256	0.0	1.1112981953568248	-0.40239968633186757	0.0	1.1421438290656585	-0.48855318948114274	0.0	1.0996502851832506	-0.45578143603143567	0.0	1.1134156205277563	-0.37092750362216165	0.0	1.020680146993268	-0.3432151879200447	0.0	0.948159435478767	-0.3866194383139896	0.0	1.112436940089827	-0.39515318579681913	0.0	1.0513609719650658	-0.3917269745939362	0.0	0.9981443465627665	-0.4083491938188308	0.0
66	2.212941176470588	1.0166734665035089	-0.2566914337002591	0.0	1.0157071221251646	-0.2569865834943545	0.0	0.9579206212613524	-0.367066925966263	0.0	0.8815974892640889	-0.2757656549326377	0.0	0.8233462172095228	-0.3005304806016427	0.0	0.8302910373638137	-0.2831165905403836	0.0	0.8735761444283745	-0.2579960793367274	0.0	1.01796351020117	-0.264868780532672	0.0	0.9601736169896732	-0.3784477721483428	0.0	0.8817116512070601	-0.28471987127129905	0.0	0.8172405946516821	-0.29574952177575103	0.0	0.8162494878747719	-0.29803295097356025	0.0	0.8727533561744016	-0.2584617576046262	0.0	1.1154680770763346	-0.40847796135492526	0.0	1.1367850869788556	-0.4967214660549304	0.0	1.0978679235459048	-0.45962683806967986	0.0	1.1203862004206315	-0.37695907659923844	0.0	1.0311544386749105	-0.33673745088144413	0.0	0.9574416418314475	-0.37002890319211584	0.0	1.1159733097287918	-0.4011990108640976	0.0	1.0566900273703446	-0.3886263318942322	0.0	1.00184459412364	-0.39172131218104195	0.0
67	2.246470588235294	1.038772151204308	-0.2535806150500913	0.0	1.0373287449255726	-0.2528965756194893	0.0	0.9731168760834608	-0.36147958492727694	0.0	0.9031658834256726	-0.25933078659857034	0.0	0.8437643607434006	-0.2811078376211877	0.0	0.8523048118370059	-0.263886399756424	0.0	0.8969467612777804	-0.24092334438063429	0.0	1.0383010989780288	-0.26196677882912195	0.0	0.9758471166989791	-0.372805989853517	0.0	0.9035108578820232	-0.27015490621370564	0.0	0.8376587627308115	-0.2765038512790198	0.0	0.8369211014272343	-0.2788138191204061	0.0	0.8973482692764493	-0.24276217549322723	0.0	1.1191108272497678	-0.4141218978165233	0.0	1.1309731435932748	-0.5031003356245735	0.0	1.0952456385200484	-0.4619482484521362	0.0	1.1270189788401905	-0.38280875898065814	0.0	1.0425813451859365	-0.3306918937117578	0.0	0.9687491658984195	-0.3532507120075356	0.0	1.1180706816087724	-0.4058719567886972	0.0	1.0587570613657034	-0.3822382385029472	0.0	1.0008638789105253	-0.3733887763959502	0.0
68	2.2800000000000002	1.0612932974170393	-0.2510797740152873	0.0	1.0595048076120113	-0.2491630107489344	0.0	0.9874749688673127	-0.35676748200693637	0.0	0.9251660633959257	-0.24292904852832561	0.0	0.8650515591844556	-0.2610260500781194	0.0	0.8750941435808446	-0.2440586504984371	0.0	0.9209281248165642	-0.22476276997726358	0.0	1.0588123503155291	-0.2595442754637397	0.0	0.9910030830156396	-0.36671021687236915	0.0	0.9259424391018156	-0.25611225855336617	0.0	0.8594971987077841	-0.2569372443452338	0.0	0.8589902700200588	-0.25901788549209637	0.0	0.9235062976870198	-0.22775729443248532	0.0	1.1220175117230173	-0.41912507256998727	0.0	1.125036581235593	-0.5073908669211752	0.0	1.0921522197182536	-0.4625301002671646	0.0	1.1329511734486308	-0.3881116437932814	0.0	1.0548191430065432	-0.32502315101278345	0.0	0.9817935159494335	-0.33696462412377953	0.0	1.1187859930436994	-0.4096570402086433	0.0	1.0619344680744265	-0.37439789322517697	0.0	1.0014583441835858	-0.355828633209545	0.0
69	2.313529411764706	1.0839659856754866	-0.24962749889661082	0.0	1.0821032414818468	-0.24607363093339837	0.0	1.000695742997145	-0.35185464959177487	0.0	0.9475909611093245	-0.22680113189851425	0.0	0.8871128414215682	-0.24072975601772104	0.0	0.8982792655910216	-0.22404700534829014	0.0	0.9453224002213884	-0.2098249939141984	0.0	1.0792098207453698	-0.25824798720356895	0.0	1.005028436103394	-0.3600561186481979	0.0	0.9485873963607274	-0.24266139998773784	0.0	0.882488247707072	-0.23744024774088257	0.0	0.8821574050700453	-0.23907234692478838	0.0	0.9499915424905023	-0.21344471601733336	0.0	1.1240613025376485	-0.42319263758893033	0.0	1.1188279678291004	-0.5094664940916639	0.0	1.0889578236873776	-0.4613177127685992	0.0	1.1379186952807019	-0.3925612227301416	0.0	1.0678938738658807	-0.31970998488467933	0.0	0.996204808751395	-0.3216325381395574	0.0	1.1180976553778508	-0.41277494922193075	0.0	1.0682490228765806	-0.3660829481400046	0.0	1.0067189973219726	-0.34035385565069	0.0
70	2.347058823529412	1.10619049130446	-0.24979194664490686	0.0	1.1047689288139448	-0.24409611155876704	0.0	1.0129882073495993	-0.34577463267578634	0.0	0.9703648603670506	-0.2114407180321137	0.0	0.9097226352827977	-0.22049570554108794	0.0	0.9213961576429536	-0.20437237056688745	0.0	0.9698806287304371	-0.1962422982294444	0.0	1.0990747292990692	-0.2589774951581585	0.0	1.017698148996893	-0.35280723007825693	0.0	0.9713105159007202	-0.22989335332529823	0.0	0.9061523741658846	-0.21834679483801564	0.0	0.905947044918066	-0.21928137403721196	0.0	0.9759167374400359	-0.19993557435611994	0.0	1.125290439229734	-0.42599225185637973	0.0	1.1119799359170353	-0.5094178923424058	0.0	1.0860816306846268	-0.45845506650700535	0.0	1.1418260484547176	-0.39590809793268505	0.0	1.0817814550471492	-0.31482542476568903	0.0	1.011422325885782	-0.3076436152285278	0.0	1.1167394848150083	-0.4151002856662788	0.0	1.0771620127386516	-0.35745405456429924	0.0	1.0162465248585797	-0.327295727348532	0.0
